External Loads File
version=1
nRows=39
nColumns=13
Range=5.000000e-03-10 seconds
endheader
time 	forceRightX 	forceRightY 	forceRightZ 	pointRightX 	pointRightY 	pointRightZ 	forceLeftX 	forceLeftY 	forceLeftZ 	pointLeftX 	pointLeftY 	pointLeftZ 		
7.505000 189.014903 278.188475 -0.000000 0.217698 0.164447 -0.146572 -73.473518 82.593812 -0.000000 0.358777 0.485247 -0.384865
7.510000 156.307059 204.526297 -0.000000 0.210345 0.169413 -0.146731 -67.941702 104.956733 -0.000000 0.365778 0.480714 -0.385427
7.515000 123.798109 137.601799 -0.000000 0.202980 0.174823 -0.147052 -61.900329 126.635236 -0.000000 0.372337 0.475452 -0.386129
7.520000 93.045053 78.721738 -0.000000 0.195694 0.180931 -0.147200 -54.956652 147.178971 -0.000000 0.378822 0.469246 -0.387050
7.525000 64.990779 28.901209 -0.000000 0.188617 0.187496 -0.147476 -47.234252 165.811731 -0.000000 0.384794 0.462868 -0.387535
7.530000 40.699998 -12.052255 -0.000000 0.181660 0.194633 -0.147731 -38.253291 181.974943 -0.000000 0.390103 0.455432 -0.388309
7.535000 20.554988 -44.665954 -0.000000 0.174935 0.202331 -0.147900 -27.794406 195.142221 -0.000000 0.395258 0.447335 -0.388942
7.540000 4.580565 -69.713571 -0.000000 0.168474 0.210511 -0.148110 -16.030741 205.035026 -0.000000 0.400223 0.438803 -0.388891
7.545000 -7.438143 -88.057922 -0.000000 0.162007 0.218993 -0.148753 -3.244587 211.690746 -0.000000 0.404693 0.429795 -0.388869
7.550000 -15.787847 -100.508457 -0.000000 0.156530 0.228107 -0.148820 10.091958 215.364965 -0.000000 0.408839 0.420397 -0.388921
7.555000 -20.824153 -107.796480 -0.000000 0.151488 0.237440 -0.148848 23.628189 216.452862 -0.000000 0.412544 0.410787 -0.388850
7.560000 -23.167317 -110.529577 -0.000000 0.147248 0.247073 -0.149061 37.579921 215.295608 -0.000000 0.415961 0.400220 -0.388672
7.565000 -22.827179 -109.402925 -0.000000 0.143449 0.256849 -0.149181 51.042647 212.367340 -0.000000 0.418642 0.389841 -0.388535
7.570000 -20.319641 -105.001926 -0.000000 0.140263 0.266907 -0.149077 64.180353 207.985667 -0.000000 0.421296 0.379636 -0.388375
7.575000 -16.186394 -97.911847 -0.000000 0.137892 0.277162 -0.149304 77.239711 202.321861 -0.000000 0.423613 0.368837 -0.388044
7.580000 -10.615491 -88.802549 -0.000000 0.136075 0.287303 -0.149380 89.782418 195.706357 -0.000000 0.425290 0.357867 -0.387882
7.585000 -4.141309 -78.295679 -0.000000 0.134923 0.297793 -0.149424 102.121198 188.149537 -0.000000 0.426457 0.346755 -0.387919
7.590000 2.966390 -66.991564 -0.000000 0.134390 0.308236 -0.149541 114.004482 179.879222 -0.000000 0.427232 0.335650 -0.388260
7.595000 10.287043 -55.368600 -0.000000 0.134557 0.318709 -0.149651 125.523046 170.908829 -0.000000 0.427287 0.324520 -0.388063
7.600000 17.505151 -43.806675 -0.000000 0.135349 0.329169 -0.149774 136.625666 161.278206 -0.000000 0.426848 0.313501 -0.387519
7.605000 24.317061 -32.647694 -0.000000 0.136734 0.339669 -0.149939 147.545365 150.733334 -0.000000 0.425657 0.302234 -0.387413
7.610000 30.658520 -22.108730 -0.000000 0.138816 0.349976 -0.149984 157.754653 139.686344 -0.000000 0.423996 0.291437 -0.387195
7.615000 36.305055 -12.529472 -0.000000 0.141570 0.360269 -0.150158 167.369551 127.978321 -0.000000 0.421553 0.281077 -0.387401
7.620000 41.039565 -4.339312 -0.000000 0.144755 0.370523 -0.150246 176.461387 115.393691 -0.000000 0.418608 0.270703 -0.387281
7.625000 44.587976 2.101109 -0.000000 0.148385 0.380590 -0.150471 184.790300 102.105194 -0.000000 0.415139 0.260452 -0.387040
7.630000 46.564894 6.442636 -0.000000 0.152764 0.390559 -0.150563 192.267151 88.100558 -0.000000 0.411143 0.250445 -0.386746
7.635000 46.559537 8.496484 -0.000000 0.157685 0.400392 -0.150589 198.761666 73.500131 -0.000000 0.406554 0.240725 -0.386425
7.640000 44.244038 8.260641 -0.000000 0.163132 0.410055 -0.150760 204.189778 58.409933 -0.000000 0.401448 0.231271 -0.386124
7.645000 39.470763 5.937480 -0.000000 0.169183 0.419674 -0.150975 208.497417 42.849104 -0.000000 0.395823 0.222115 -0.385872
7.650000 32.317565 2.039977 -0.000000 0.175679 0.428793 -0.151081 211.554500 27.334243 -0.000000 0.389626 0.213490 -0.385476
7.655000 23.139529 -2.897627 -0.000000 0.182508 0.437739 -0.151455 213.399951 11.794464 -0.000000 0.382893 0.205249 -0.385188
7.660000 12.480744 -8.268919 -0.000000 0.189874 0.446365 -0.151861 214.026981 -3.583939 -0.000000 0.375676 0.197529 -0.385004
7.665000 0.997121 -13.545172 -0.000000 0.197543 0.454460 -0.152308 213.475236 -18.499828 -0.000000 0.367993 0.190273 -0.384796
7.670000 -10.647809 -18.333422 -0.000000 0.205632 0.461751 -0.152560 211.847085 -32.717165 -0.000000 0.360001 0.183595 -0.384698
7.675000 -21.939003 -22.297684 -0.000000 0.214045 0.468451 -0.152959 209.187773 -46.465109 -0.000000 0.351516 0.177093 -0.384421
7.680000 -32.460386 -25.158060 -0.000000 0.222733 0.474621 -0.153422 205.660111 -59.340446 -0.000000 0.342817 0.171408 -0.384342
7.685000 -41.972022 -26.550234 -0.000000 0.231893 0.480486 -0.153489 201.309172 -71.617053 -0.000000 0.333885 0.166343 -0.384371
7.690000 -50.188538 -26.209488 -0.000000 0.241000 0.484784 -0.154002 196.427663 -82.815126 -0.000000 0.324783 0.161884 -0.384348
7.695000 -57.020424 -23.535859 -0.000000 0.250689 0.489566 -0.154168 190.794281 -93.750959 -0.000000 0.315446 0.158071 -0.384342
